<svg version="1.1" viewBox="0.0 0.0 145.7244094488189 147.0708661417323" fill="none" stroke="none" stroke-linecap="square" stroke-miterlimit="10" xmlns:xlink="http://www.w3.org/1999/xlink" xmlns="http://www.w3.org/2000/svg"><clipPath id="p.0"><path d="m0 0l145.72441 0l0 147.07086l-145.72441 0l0 -147.07086z" clip-rule="nonzero"/></clipPath><g clip-path="url(#p.0)"><path fill="#000000" fill-opacity="0.0" d="m0 0l145.72441 0l0 147.07086l-145.72441 0z" fill-rule="evenodd"/><path fill="#000000" d="m-0.02114567 24.760668l0 0c0 -13.35947 10.82999 -24.18946 24.189459 -24.18946l96.754944 0l0 0c6.4154434 0 12.568123 2.548525 17.10453 7.084929c4.5364075 4.5364037 7.0849304 10.689088 7.0849304 17.10453l0 97.63683c0 13.359459 -10.830002 24.18946 -24.18946 24.18946l-96.754944 0l0 0c-13.359469 0 -24.189459 -10.830002 -24.189459 -24.18946z" fill-rule="evenodd"/><path stroke="#000000" stroke-width="1.0" stroke-linejoin="round" stroke-linecap="butt" d="m-0.02114567 24.760668l0 0c0 -13.35947 10.82999 -24.18946 24.189459 -24.18946l96.754944 0l0 0c6.4154434 0 12.568123 2.548525 17.10453 7.084929c4.5364075 4.5364037 7.0849304 10.689088 7.0849304 17.10453l0 97.63683c0 13.359459 -10.830002 24.18946 -24.18946 24.18946l-96.754944 0l0 0c-13.359469 0 -24.189459 -10.830002 -24.189459 -24.18946z" fill-rule="evenodd"/><path fill="#000000" fill-opacity="0.0" d="m22.980028 -22.31171l110.77165 10.55118l-17.165352 180.15749l-110.77165 -10.551193z" fill-rule="evenodd"/><path fill="#00ffff" d="m60.489796 120.21538q-7.559532 -0.7200546 -13.809437 -3.3244247q-6.249901 -2.6043625 -11.106472 -7.14785q-4.856571 -4.54348 -8.393885 -10.90757l10.889425 -10.342163q5.6170464 9.90538 11.247662 14.067413q5.632099 4.1464844 13.860481 4.930252q5.039692 0.48003387 9.312824 -0.71390533q4.27462 -1.2094955 6.919754 -3.7670746q2.662178 -2.5716553 3.0030441 -6.1492004q0.22823334 -2.395401 -0.3790512 -4.5878677q-0.5902481 -2.2065353 -2.0915604 -4.076065q-1.4842834 -1.883606 -3.9425888 -3.5931625q-2.4427567 -1.7080688 -5.7891693 -3.1569138q-3.3449326 -1.4644012 -7.780182 -2.6873474q-7.0158005 -2.1436615 -12.108723 -5.03022q-5.075886 -2.9006271 -8.328129 -6.820427q-3.2352066 -3.9338684 -4.5260506 -8.671364q-1.28936 -4.7530518 -0.7454529 -10.461575q0.53056717 -5.568531 3.44318 -10.109684q2.914093 -4.556713 7.5576553 -7.6616383q4.659115 -3.103445 10.674381 -4.461054q6.032299 -1.3716831 12.79855 -0.7271881q7.1706696 0.68301964 12.96727 3.1029453q5.796608 2.4199276 10.083595 6.5167637q4.3025513 4.09832 6.8458786 9.692818l-11.027885 8.994839q-2.2433853 -4.6241837 -5.2875137 -7.927723q-3.0285797 -3.3020554 -6.8653183 -5.2056923q-3.8352509 -1.9191895 -8.346085 -2.348854q-5.1796875 -0.49337387 -9.189873 0.7413101q-3.9931526 1.2206078 -6.4590454 3.8737411q-2.4488564 2.639061 -2.8149185 6.4810333q-0.2667656 2.7998238 0.57012177 5.2182007q0.8368912 2.418377 2.8581734 4.43161q2.022766 1.9976807 5.60693 3.7516937q3.5856476 1.7384567 8.664551 3.2895393q7.142456 2.2969894 12.616829 5.298355q5.4758606 2.985817 9.140686 6.693779q3.666298 3.6924133 5.326767 8.009941q1.6619492 4.3019714 1.2069626 9.077225q-0.8477173 8.897202 -5.58918 15.006386q-4.7258987 6.1106567 -12.635933 8.904449q-7.89447 2.7952728 -18.37827 1.796669z" fill-rule="nonzero"/><path fill="#000000" fill-opacity="0.0" d="m37.952522 -22.31171l110.77166 10.55118l-17.16536 180.15749l-110.77165 -10.551193z" fill-rule="evenodd"/><path fill="#ff00ff" d="m75.46229 120.21538q-7.559532 -0.7200546 -13.809433 -3.3244247q-6.2499046 -2.6043625 -11.106476 -7.14785q-4.856571 -4.54348 -8.393883 -10.90757l10.889427 -10.342163q5.6170464 9.90538 11.247658 14.067413q5.632103 4.1464844 13.860481 4.930252q5.039688 0.48003387 9.312828 -0.71390533q4.2746124 -1.2094955 6.919754 -3.7670746q2.6621704 -2.5716553 3.0030441 -6.1492004q0.22823334 -2.395401 -0.3790512 -4.5878677q-0.5902481 -2.2065353 -2.091568 -4.076065q-1.4842758 -1.883606 -3.9425812 -3.5931625q-2.4427567 -1.7080688 -5.7891693 -3.1569138q-3.3449326 -1.4644012 -7.780182 -2.6873474q-7.0158005 -2.1436615 -12.1087265 -5.03022q-5.075882 -2.9006271 -8.328125 -6.820427q-3.2352104 -3.9338684 -4.5260506 -8.671364q-1.28936 -4.7530518 -0.7454529 -10.461575q0.53056717 -5.568531 3.4431763 -10.109684q2.914093 -4.556713 7.5576553 -7.6616383q4.6591225 -3.103445 10.674381 -4.461054q6.032303 -1.3716831 12.798553 -0.7271881q7.1706696 0.68301964 12.96727 3.1029453q5.7966003 2.4199276 10.083595 6.5167637q4.3025436 4.09832 6.845871 9.692818l-11.027878 8.994839q-2.2433853 -4.6241837 -5.2875137 -7.927723q-3.0285797 -3.3020554 -6.8653183 -5.2056923q-3.8352585 -1.9191895 -8.346092 -2.348854q-5.17968 -0.49337387 -9.189865 0.7413101q-3.9931564 1.2206078 -6.4590454 3.8737411q-2.4488602 2.639061 -2.8149185 6.4810333q-0.2667694 2.7998238 0.57012177 5.2182007q0.8368912 2.418377 2.8581696 4.43161q2.022766 1.9976807 5.6069336 3.7516937q3.5856476 1.7384567 8.664551 3.2895393q7.142456 2.2969894 12.616829 5.298355q5.4758606 2.985817 9.140678 6.693779q3.6663055 3.6924133 5.3267746 8.009941q1.6619492 4.3019714 1.2069626 9.077225q-0.8477249 8.897202 -5.58918 15.006386q-4.7259064 6.1106567 -12.635933 8.904449q-7.89447 2.7952728 -18.378273 1.796669z" fill-rule="nonzero"/><path fill="#000000" fill-opacity="0.0" d="m29.89608 -22.31171l110.77166 10.55118l-17.16536 180.15749l-110.77165 -10.551193z" fill-rule="evenodd"/><path fill="#ffffff" d="m67.405846 120.21538q-7.559532 -0.7200546 -13.809433 -3.3244247q-6.2499046 -2.6043625 -11.106476 -7.14785q-4.856571 -4.54348 -8.393883 -10.90757l10.889427 -10.342163q5.6170464 9.90538 11.247662 14.067413q5.6320953 4.1464844 13.860477 4.930252q5.039688 0.48003387 9.312828 -0.71390533q4.2746124 -1.2094955 6.919754 -3.7670746q2.6621704 -2.5716553 3.0030441 -6.1492004q0.22823334 -2.395401 -0.3790512 -4.5878677q-0.5902481 -2.2065353 -2.091568 -4.076065q-1.4842758 -1.883606 -3.9425888 -3.5931625q-2.442749 -1.7080688 -5.7891617 -3.1569138q-3.3449326 -1.4644012 -7.780182 -2.6873474q-7.0158043 -2.1436615 -12.1087265 -5.03022q-5.075882 -2.9006271 -8.328125 -6.820427q-3.2352104 -3.9338684 -4.5260506 -8.671364q-1.28936 -4.7530518 -0.7454567 -10.461575q0.530571 -5.568531 3.44318 -10.109684q2.914093 -4.556713 7.5576553 -7.6616383q4.6591187 -3.103445 10.674381 -4.461054q6.032303 -1.3716831 12.798553 -0.7271881q7.1706696 0.68301964 12.96727 3.1029453q5.7966003 2.4199276 10.083595 6.5167637q4.3025436 4.09832 6.845871 9.692818l-11.027878 8.994839q-2.2433853 -4.6241837 -5.2875137 -7.927723q-3.0285797 -3.3020554 -6.8653183 -5.2056923q-3.8352585 -1.9191895 -8.346092 -2.348854q-5.17968 -0.49337387 -9.189865 0.7413101q-3.9931564 1.2206078 -6.459049 3.8737411q-2.4488564 2.639061 -2.8149185 6.4810333q-0.2667656 2.7998238 0.5701256 5.2182007q0.83688736 2.418377 2.8581734 4.43161q2.0227623 1.9976807 5.60693 3.7516937q3.5856476 1.7384567 8.664551 3.2895393q7.142456 2.2969894 12.616829 5.298355q5.4758606 2.985817 9.140678 6.693779q3.6663055 3.6924133 5.3267746 8.009941q1.6619492 4.3019714 1.2069626 9.077225q-0.8477249 8.897202 -5.58918 15.006386q-4.7259064 6.1106567 -12.635933 8.904449q-7.89447 2.7952728 -18.378273 1.796669z" fill-rule="nonzero"/><path fill="#000000" fill-opacity="0.0" d="m27.336338 75.57638l102.267715 -0.881897" fill-rule="evenodd"/><path stroke="#000000" stroke-width="12.0" stroke-linejoin="round" stroke-linecap="butt" d="m27.336338 75.57638l102.267715 -0.881897" fill-rule="evenodd"/></g></svg>